<?xml version="1.0" encoding="UTF-8"?>
<svg id="Layer_2" data-name="Layer 2" xmlns="http://www.w3.org/2000/svg" viewBox="0 0 155.27 155.27">
  <defs>
    <style>
      .cls-1 {
        fill: #00726b;
      }

      .cls-2 {
        fill: #fff;
      }

      .cls-3 {
        opacity: .2;
      }
    </style>
  </defs>
  <g id="Layer_1-2" data-name="Layer 1">
    <g>
      <rect class="cls-1" width="155.27" height="155.27" rx="10.91" ry="10.91"/>
      <g>
        <polygon points="56.31 44.69 56.31 76.01 93.26 76.01 100.48 60.35 97.32 50.57 81.23 40.78 56.31 44.69"/>
        <g>
          <path class="cls-2" d="M69.39,61.07c-2.05-1.79-4.06-3.55-6.11-5.35,.53-.47,1.04-.93,1.55-1.39,.42-.37,.84-.72,1.25-1.1,.16-.15,.27-.19,.45-.02,2.88,2.53,5.77,5.05,8.66,7.58,.09,.08,.18,.17,.3,.29-3.05,2.67-6.09,5.32-9.16,8.02-1-.88-2.01-1.76-3.06-2.67,2.04-1.79,4.06-3.56,6.11-5.35Z"/>
          <path class="cls-2" d="M75.49,66.45c.2,0,.33-.02,.47-.02,3.82,0,7.64,0,11.45,0,.28,0,.37,.07,.36,.35-.01,.67-.01,1.34,0,2.01,0,.26-.1,.34-.35,.34-1.98-.01-3.95-.01-5.93-.02-1.24,0-2.48,0-3.72,0-.67,0-1.34,0-2-.02-.1,0-.26-.15-.27-.24-.02-.78-.01-1.56-.01-2.39Z"/>
        </g>
        <path class="cls-2" d="M104.06,83.67c.73-.85,1.32-1.51,1.91-2.21,7.66-9.07,9.87-19.38,5.97-30.54-3.98-11.27-12.08-19.08-23.98-19.93-7.26-.54-14.55-.63-21.9-.58-.04-.01-.07-.01-.1,0-8.06,.06-16.19,.29-24.45,.29v2.87c0,9.17,.18,18.31-.04,27.44-.22,8.25,.63,16.06,6.67,22.55-4.6,5.27-6.59,11.16-6.65,17.55h-.06v23.75h16.46v-18.87h.01c0-.73-.01-1.41-.01-2.08v-.84c0-.65-.01-1.3,.01-1.94,.11-5.49,3.83-9.25,9.25-9.29,1.65-.02,3.3-.03,4.96-.04,3.61-.02,7.22-.01,10.84,.04,7.22,.08,12.89,4.94,14.14,12.01,.08,.37,.15,.7,.22,1.07v19.93h16.4v-18.9c0-.48-.04-.95-.08-1.43-.44-8.25-3.79-15.07-9.57-20.85Zm-19.05-8.55c-4.1,.31-8.23,.36-12.35,.29-2.25-.03-4.49-.1-6.73-.18-4.16-.15-7.59-3.31-7.77-7.37-.33-6.88-.11-13.81-.11-20.96,4.61,0,9.14-.09,13.63-.12,4.54-.03,9.03-.01,13.52,.23,6.81,.34,12.04,6.93,12.11,13.97,.08,7.07-5.26,13.59-12.3,14.14Z"/>
        <path class="cls-3" d="M54.01,83.56c-4.6,5.27-6.59,11.16-6.65,17.55h-.06v23.75h-5.87v-23.75h.05c.07-6.39,2.06-12.28,6.65-17.55-6.04-6.49-6.88-14.3-6.66-22.55,.22-9.13,.03-18.27,.03-27.44v-2.87c10.28,0,20.35-.36,30.33-.29-8.06,.06-16.19,.29-24.45,.29v2.87c0,9.17,.18,18.31-.04,27.44-.22,8.25,.63,16.06,6.67,22.55Z"/>
      </g>
    </g>
  </g>
</svg>